<?xml version="1.0" standalone="no"?>
<!DOCTYPE svg PUBLIC "-//W3C//DTD SVG 1.1//EN" "http://www.w3.org/Graphics/SVG/1.1/DTD/svg11.dtd">
<svg width="100%" height="100%" viewBox="0 0 32 32" version="1.1" xmlns="http://www.w3.org/2000/svg" xmlns:xlink="http://www.w3.org/1999/xlink" xml:space="preserve" style="fill-rule:evenodd;clip-rule:evenodd;stroke-linejoin:round;stroke-miterlimit:1.41421;">
    <path id="Layer1" d="M30.234,0L1.766,0C0.791,0 0,0.791 0,1.766L0,30.234C0,31.209 0.791,32 1.766,32L17.092,32L17.092,19.608L12.922,19.608L12.922,14.779L17.092,14.779L17.092,11.217C17.092,7.084 19.617,4.833 23.304,4.833C25.07,4.833 26.588,4.965 27.03,5.023L27.03,9.343L24.473,9.344C22.467,9.344 22.079,10.297 22.079,11.695L22.079,14.779L26.862,14.779L26.239,19.608L22.079,19.608L22.079,32L30.234,32C31.209,32 32,31.209 32,30.234L32,1.766C32,0.791 31.209,0 30.234,0Z" style="fill:black;fill-rule:nonzero;"/>
</svg>
