<?xml version="1.0" standalone="no"?>
<!DOCTYPE svg PUBLIC "-//W3C//DTD SVG 1.1//EN" "http://www.w3.org/Graphics/SVG/1.1/DTD/svg11.dtd">
<svg width="32px" height="32px" version="1.1" xmlns="http://www.w3.org/2000/svg" xmlns:xlink="http://www.w3.org/1999/xlink" xml:space="preserve" style="fill-rule:evenodd;clip-rule:evenodd;stroke-linejoin:round;stroke-miterlimit:1.41421;">
    <g>
        <g id="Layer1">
            <g>
                <path d="M30.2339,0L1.76608,0C0.790524,0 0,0.79052 0,1.76608L0,30.2339C0,31.2091 0.790524,32 1.76608,32L17.0921,32L17.0921,19.6079L12.9221,19.6079L12.9221,14.7785L17.0921,14.7785L17.0921,11.2171C17.0921,7.08389 19.6167,4.83303 23.3035,4.83303C25.0696,4.83303 26.5879,4.96452 27.0299,5.02327L27.0299,9.34274L24.4729,9.34394C22.4674,9.34394 22.0794,10.2967 22.0794,11.6951L22.0794,14.7785L26.8616,14.7785L26.239,19.6079L22.0794,19.6079L22.0794,32L30.2339,32C31.2091,32 32,31.2091 32,30.2339L32,1.76608C32,0.79052 31.2091,0 30.2339,0Z" style="fill:rgb(254,254,254);fill-rule:nonzero;"/>
            </g>
        </g>
    </g>
</svg>
