<?xml version="1.0" standalone="no"?>
<!DOCTYPE svg PUBLIC "-//W3C//DTD SVG 1.1//EN" "http://www.w3.org/Graphics/SVG/1.1/DTD/svg11.dtd">
<svg width="32px" height="32px" version="1.1" xmlns="http://www.w3.org/2000/svg" xmlns:xlink="http://www.w3.org/1999/xlink" xml:space="preserve" style="fill-rule:evenodd;clip-rule:evenodd;stroke-linejoin:round;stroke-miterlimit:1.41421;">
    <g>
        <g id="Layer1">
            <g>
                <path d="M15.9984,0C7.16423,0 0,7.34528 0,16.406C0,23.6539 4.58405,29.8041 10.9428,31.9728C11.7417,32.1238 12.0332,31.6169 12.0332,31.1805C12.0332,30.7911 12.0201,29.7605 12.0135,28.3908C7.56041,29.3811 6.62068,26.1919 6.62068,26.1919C5.89379,24.2951 4.84601,23.7916 4.84601,23.7916C3.39219,22.7744 4.95406,22.7945 4.95406,22.7945C6.56175,22.912 7.40652,24.4865 7.40652,24.4865C8.83414,26.9942 11.1524,26.2691 12.0626,25.8495C12.21,24.7886 12.6225,24.0669 13.0777,23.6573C9.52501,23.241 5.789,21.8344 5.789,15.5466C5.789,13.7573 6.41441,12.2903 7.43599,11.1455C7.27228,10.7292 6.72218,9.06073 7.59316,6.80479C7.59316,6.80479 8.93891,6.36165 11.9939,8.48668C13.2708,8.12075 14.6395,7.93948 16.0016,7.93276C17.3605,7.93948 18.7292,8.12075 20.0061,8.48668C23.0611,6.36165 24.4003,6.80479 24.4003,6.80479C25.2745,9.06073 24.7244,10.7292 24.5607,11.1455C25.5889,12.2903 26.2077,13.7573 26.2077,15.5466C26.2077,21.8512 22.4652,23.2377 18.8994,23.6439C19.4757,24.1508 19.9865,25.1512 19.9865,26.682C19.9865,28.8742 19.9668,30.6434 19.9668,31.1805C19.9668,31.6203 20.255,32.1306 21.067,31.9694C27.4192,29.7974 32,23.6506 32,16.406C32,7.34528 24.8358,0 15.9984,0Z" style="fill:rgb(254,254,254);"/>
            </g>
        </g>
    </g>
</svg>
