<?xml version="1.0" standalone="no"?>
<!DOCTYPE svg PUBLIC "-//W3C//DTD SVG 1.1//EN" "http://www.w3.org/Graphics/SVG/1.1/DTD/svg11.dtd">
<svg width="100%" height="100%" viewBox="0 0 32 32" version="1.1" xmlns="http://www.w3.org/2000/svg" xmlns:xlink="http://www.w3.org/1999/xlink" xml:space="preserve" style="fill-rule:evenodd;clip-rule:evenodd;stroke-linejoin:round;stroke-miterlimit:1.41421;">
    <path id="Layer1" d="M27.268,27.269L22.525,27.269L22.525,19.842C22.525,18.071 22.493,15.793 20.059,15.793C17.589,15.793 17.21,17.722 17.21,19.714L17.21,27.269L12.467,27.269L12.467,11.997L17.02,11.997L17.02,14.084L17.084,14.084C17.717,12.883 19.265,11.618 21.575,11.618C26.381,11.618 27.268,14.781 27.268,18.892L27.268,27.269ZM7.119,9.91C5.597,9.91 4.366,8.676 4.366,7.157C4.366,5.639 5.597,4.406 7.119,4.406C8.636,4.406 9.869,5.639 9.869,7.157C9.869,8.676 8.636,9.91 7.119,9.91ZM9.491,27.269L4.744,27.269L4.744,11.997L9.491,11.997L9.491,27.269ZM29.632,0L2.361,0C1.059,0 0,1.033 0,2.306L0,29.691C0,30.966 1.059,32 2.361,32L29.632,32C30.937,32 32.001,30.966 32.001,29.691L32.001,2.306C32.001,1.033 30.937,0 29.632,0Z" style="fill:black;fill-rule:nonzero;"/>
</svg>
