<?xml version="1.0" standalone="no"?>
<!DOCTYPE svg PUBLIC "-//W3C//DTD SVG 1.1//EN" "http://www.w3.org/Graphics/SVG/1.1/DTD/svg11.dtd">
<svg width="32px" height="32px" version="1.1" xmlns="http://www.w3.org/2000/svg" xmlns:xlink="http://www.w3.org/1999/xlink" xml:space="preserve" style="fill-rule:evenodd;clip-rule:evenodd;stroke-linejoin:round;stroke-miterlimit:1.41421;">
    <g>
        <g id="Layer1">
            <g>
                <path d="M27.2681,27.2689L22.5252,27.2689L22.5252,19.8422C22.5252,18.0711 22.4926,15.7933 20.0585,15.7933C17.5889,15.7933 17.2096,17.7222 17.2096,19.7141L17.2096,27.2689L12.4674,27.2689L12.4674,11.997L17.02,11.997L17.02,14.0837L17.0837,14.0837C17.717,12.883 19.2652,11.6178 21.5748,11.6178C26.3807,11.6178 27.2681,14.7807 27.2681,18.8919L27.2681,27.2689ZM7.11852,9.90963C5.59704,9.90963 4.36593,8.67629 4.36593,7.15704C4.36593,5.63926 5.59704,4.40592 7.11852,4.40592C8.63556,4.40592 9.86889,5.63926 9.86889,7.15704C9.86889,8.67629 8.63556,9.90963 7.11852,9.90963ZM9.49111,27.2689L4.7437,27.2689L4.7437,11.997L9.49111,11.997L9.49111,27.2689ZM29.6319,0L2.36148,0C1.05852,0 0,1.03333 0,2.30593L0,29.6911C0,30.9659 1.05852,32 2.36148,32L29.6319,32C30.937,32 32.0007,30.9659 32.0007,29.6911L32.0007,2.30593C32.0007,1.03333 30.937,0 29.6319,0Z" style="fill:rgb(254,254,254);fill-rule:nonzero;"/>
            </g>
        </g>
    </g>
</svg>
