<?xml version="1.0" standalone="no"?>
<!DOCTYPE svg PUBLIC "-//W3C//DTD SVG 1.1//EN" "http://www.w3.org/Graphics/SVG/1.1/DTD/svg11.dtd">
<svg width="40px" height="32px" version="1.1" xmlns="http://www.w3.org/2000/svg" xmlns:xlink="http://www.w3.org/1999/xlink" xml:space="preserve" style="fill-rule:evenodd;clip-rule:evenodd;stroke-linejoin:round;stroke-miterlimit:1.41421;">
    <g>
        <g id="Layer1">
            <g>
                <path d="M12.3832,32C7.82128,32 3.57481,30.6629 0,28.3709C0.63181,28.4454 1.27466,28.4838 1.92664,28.4838C5.71173,28.4838 9.19484,27.1923 11.9597,25.0256C8.42477,24.9603 5.44144,22.6246 4.41354,19.4152C4.90661,19.5093 5.41263,19.5602 5.93306,19.5602C6.67001,19.5602 7.38343,19.4613 8.06181,19.2764C4.36602,18.5347 1.58144,15.2695 1.58144,11.3553C1.58144,11.3212 1.58144,11.2876 1.58192,11.254C2.67127,11.8589 3.91664,12.2223 5.24123,12.2641C3.07359,10.8157 1.64722,8.34267 1.64722,5.54033C1.64722,4.05971 2.0457,2.67175 2.74088,1.4787C6.72522,6.3661 12.678,9.58228 19.3921,9.91931C19.2543,9.32831 19.1828,8.71138 19.1828,8.07813C19.1828,3.61706 22.7999,0 27.2614,0C29.5851,0 31.6846,0.98132 33.1585,2.55124C34.9982,2.18877 36.7275,1.51663 38.2883,0.591001C37.6848,2.47731 36.4039,4.06067 34.7361,5.06024C36.3703,4.86484 37.9273,4.43083 39.3762,3.78797C38.2931,5.40831 36.9229,6.83084 35.3448,7.97011C35.3607,8.31626 35.3684,8.66481 35.3684,9.01529C35.3684,19.6903 27.2427,32 12.3832,32Z" style="fill:white;fill-rule:nonzero;"/>
            </g>
        </g>
    </g>
</svg>
