<?xml version="1.0" standalone="no"?>
<!DOCTYPE svg PUBLIC "-//W3C//DTD SVG 1.1//EN" "http://www.w3.org/Graphics/SVG/1.1/DTD/svg11.dtd">
<svg width="100%" height="100%" viewBox="0 0 40 32" version="1.1" xmlns="http://www.w3.org/2000/svg" xmlns:xlink="http://www.w3.org/1999/xlink" xml:space="preserve" style="fill-rule:evenodd;clip-rule:evenodd;stroke-linejoin:round;stroke-miterlimit:1.41421;">
    <path id="Layer1" d="M12.383,32C7.821,32 3.575,30.663 0,28.371C0.632,28.445 1.275,28.484 1.927,28.484C5.712,28.484 9.195,27.192 11.96,25.026C8.425,24.96 5.441,22.625 4.414,19.415C4.907,19.509 5.413,19.56 5.933,19.56C6.67,19.56 7.383,19.461 8.062,19.276C4.366,18.535 1.581,15.27 1.581,11.355C1.581,11.321 1.581,11.288 1.582,11.254C2.671,11.859 3.917,12.222 5.241,12.264C3.074,10.816 1.647,8.343 1.647,5.54C1.647,4.06 2.046,2.672 2.741,1.479C6.725,6.366 12.678,9.582 19.392,9.919C19.254,9.328 19.183,8.711 19.183,8.078C19.183,3.617 22.8,0 27.261,0C29.585,0 31.685,0.981 33.159,2.551C34.998,2.189 36.728,1.517 38.288,0.591C37.685,2.477 36.404,4.061 34.736,5.06C36.37,4.865 37.927,4.431 39.376,3.788C38.293,5.408 36.923,6.831 35.345,7.97C35.361,8.316 35.368,8.665 35.368,9.015C35.368,19.69 27.243,32 12.383,32Z" style="fill:black;fill-rule:nonzero;"/>
</svg>
