<?xml version="1.0" standalone="no"?>
<!DOCTYPE svg PUBLIC "-//W3C//DTD SVG 1.1//EN" "http://www.w3.org/Graphics/SVG/1.1/DTD/svg11.dtd">
<svg width="80px" height="40px" version="1.1" xmlns="http://www.w3.org/2000/svg" xmlns:xlink="http://www.w3.org/1999/xlink" xml:space="preserve" style="fill-rule:evenodd;clip-rule:evenodd;stroke-linejoin:round;stroke-miterlimit:1.41421;">
    <g>
        <g>
            <path id="Shape" d="M36,8L20,8L16,4L4,4C1.79,4 0.02,5.79 0.02,8L0,32C0,34.21 1.79,36 4,36L36,36C38.21,36 40,34.21 40,32L40,12C40,9.79 38.21,8 36,8ZM36,32L4,32L4,12L36,12Z" style="fill:rgb(44,157,223);"/>
            <path id="Shape1" d="M76,8L60,8L56,4L44,4C41.79,4 40.02,5.79 40.02,8L40,32C40,34.21 41.79,36 44,36L76,36C78.21,36 80,34.21 80,32L80,12C80,9.79 78.21,8 76,8ZM76,32L44,32L44,12L76,12Z" style="fill:rgb(131,203,237);"/>
        </g>
    </g>
</svg>
