<?xml version="1.0" standalone="no"?>
<!DOCTYPE svg PUBLIC "-//W3C//DTD SVG 1.1//EN" "http://www.w3.org/Graphics/SVG/1.1/DTD/svg11.dtd">
<svg width="80px" height="40px" version="1.1" xmlns="http://www.w3.org/2000/svg" xmlns:xlink="http://www.w3.org/1999/xlink" xml:space="preserve" style="fill-rule:evenodd;clip-rule:evenodd;stroke-linejoin:round;stroke-miterlimit:1.41421;">
    <g>
        <path id="Shape" d="M18,30L22,30L22,18L18,18ZM20,0C8.95,0 0,8.95 0,20C0,31.05 8.95,40 20,40C31.05,40 40,31.05 40,20C40,8.95 31.05,0 20,0ZM20,36C11.18,36 4,28.82 4,20C4,11.18 11.18,4 20,4C28.82,4 36,11.18 36,20C36,28.82 28.82,36 20,36ZM18,14L22,14L22,10L18,10Z" style="fill:rgb(44,157,223);"/>
        <g id="Shape1">
            <path d="M58,30L62,30L62,18L58,18ZM60,0C48.95,0 40,8.95 40,20C40,31.05 48.95,40 60,40C71.05,40 80,31.05 80,20C80,8.95 71.05,0 60,0ZM60,36C51.18,36 44,28.82 44,20C44,11.18 51.18,4 60,4C68.82,4 76,11.18 76,20C76,28.82 68.82,36 60,36ZM58,14L62,14L62,10L58,10Z" style="fill:rgb(131,202,237);"/>
        </g>
    </g>
</svg>
