<?xml version="1.0" standalone="no"?>
<!DOCTYPE svg PUBLIC "-//W3C//DTD SVG 1.1//EN" "http://www.w3.org/Graphics/SVG/1.1/DTD/svg11.dtd">
<svg width="80px" height="32px" version="1.1" xmlns="http://www.w3.org/2000/svg" xmlns:xlink="http://www.w3.org/1999/xlink" xml:space="preserve" style="fill-rule:evenodd;clip-rule:evenodd;stroke-linejoin:round;stroke-miterlimit:1.41421;">
    <g>
        <path id="Shape" d="M4,0C1.79,0 0.02,1.79 0.02,4L0,28C0,30.21 1.79,32 4,32L36,32C38.21,32 40,30.21 40,28L40,4C40,1.79 38.21,0 36,0ZM36,8L20,18L4,8L4,4L20,14L36,4Z" style="fill:rgb(44,157,223);"/>
        <g id="Shape1">
            <path d="M44,3.55271e-15C41.79,3.55271e-15 40.02,1.79 40.02,4L40,28C40,30.21 41.79,32 44,32L76,32C78.21,32 80,30.21 80,28L80,4C80,1.79 78.21,3.55271e-15 76,3.55271e-15ZM76,8L60,18L44,8L44,4L60,14L76,4Z" style="fill:rgb(131,203,237);"/>
        </g>
    </g>
</svg>
