<?xml version="1.0" standalone="no"?>
<!DOCTYPE svg PUBLIC "-//W3C//DTD SVG 1.1//EN" "http://www.w3.org/Graphics/SVG/1.1/DTD/svg11.dtd">
<svg width="80px" height="40px" version="1.1" xmlns="http://www.w3.org/2000/svg" xmlns:xlink="http://www.w3.org/1999/xlink" xml:space="preserve" style="fill-rule:evenodd;clip-rule:evenodd;stroke-linejoin:round;stroke-miterlimit:1.41421;">
    <g>
        <g>
            <path id="Shape" d="M4,4C1.79,4 0.02,5.79 0.02,8L0,32C0,34.21 1.79,36 4,36L36,36C38.21,36 40,34.21 40,32L40,8C40,5.79 38.21,4 36,4ZM36,12L20,22L4,12L4,8L20,18L36,8Z" style="fill:rgb(44,157,223);"/>
            <path id="Shape1" d="M44,4C41.79,4 40.02,5.79 40.02,8L40,32C40,34.21 41.79,36 44,36L76,36C78.21,36 80,34.21 80,32L80,8C80,5.79 78.21,4 76,4ZM76,12L60,22L44,12L44,8L60,18L76,8Z" style="fill:rgb(131,203,237);"/>
        </g>
    </g>
</svg>
