<?xml version="1.0" standalone="no"?>
<!DOCTYPE svg PUBLIC "-//W3C//DTD SVG 1.1//EN" "http://www.w3.org/Graphics/SVG/1.1/DTD/svg11.dtd">
<svg width="100%" height="100%" viewBox="0 0 32 32" version="1.1" xmlns="http://www.w3.org/2000/svg" xmlns:xlink="http://www.w3.org/1999/xlink" xml:space="preserve" style="fill-rule:evenodd;clip-rule:evenodd;stroke-linejoin:round;stroke-miterlimit:1.41421;">
    <path id="Layer1" d="M15.998,0C7.164,0 0,7.345 0,16.406C0,23.654 4.584,29.804 10.943,31.973C11.742,32.124 12.033,31.617 12.033,31.181C12.033,30.791 12.02,29.761 12.014,28.391C7.56,29.381 6.621,26.192 6.621,26.192C5.894,24.295 4.846,23.792 4.846,23.792C3.392,22.774 4.954,22.795 4.954,22.795C6.562,22.912 7.407,24.487 7.407,24.487C8.834,26.994 11.152,26.269 12.063,25.85C12.21,24.789 12.623,24.067 13.078,23.657C9.525,23.241 5.789,21.834 5.789,15.547C5.789,13.757 6.414,12.29 7.436,11.146C7.272,10.729 6.722,9.061 7.593,6.805C7.593,6.805 8.939,6.362 11.994,8.487C13.271,8.121 14.64,7.939 16.002,7.933C17.361,7.939 18.729,8.121 20.006,8.487C23.061,6.362 24.4,6.805 24.4,6.805C25.275,9.061 24.724,10.729 24.561,11.146C25.589,12.29 26.208,13.757 26.208,15.547C26.208,21.851 22.465,23.238 18.899,23.644C19.476,24.151 19.987,25.151 19.987,26.682C19.987,28.874 19.967,30.643 19.967,31.181C19.967,31.62 20.255,32.131 21.067,31.969C27.419,29.797 32,23.651 32,16.406C32,7.345 24.836,0 15.998,0Z" style="fill:black;"/>
</svg>
