<svg fill="#8395A7" clip-rule="evenodd" fill-rule="evenodd" stroke-linejoin="round" stroke-miterlimit="1.41421" viewBox="0 0 32 32" xmlns="http://www.w3.org/2000/svg"><path d="m30.234 0h-28.468c-.975 0-1.766.791-1.766 1.766v28.468c0 .975.791 1.766 1.766 1.766h15.326v-12.392h-4.17v-4.829h4.17v-3.562c0-4.133 2.525-6.384 6.212-6.384 1.766 0 3.284.132 3.726.19v4.32l-2.557.001c-2.006 0-2.394.953-2.394 2.351v3.084h4.783l-.623 4.829h-4.16v12.392h8.155c.975 0 1.766-.791 1.766-1.766v-28.468c0-.975-.791-1.766-1.766-1.766z" fill-rule="nonzero"/></svg>