<svg fill="#8395A7" clip-rule="evenodd" fill-rule="evenodd" stroke-linejoin="round" stroke-miterlimit="1.41421" viewBox="0 0 32 32" xmlns="http://www.w3.org/2000/svg"><path d="m15.998 0c-8.834 0-15.998 7.345-15.998 16.406 0 7.248 4.584 13.398 10.943 15.567.799.151 1.09-.356 1.09-.792 0-.39-.013-1.42-.019-2.79-4.454.99-5.393-2.199-5.393-2.199-.727-1.897-1.775-2.4-1.775-2.4-1.454-1.018.108-.997.108-.997 1.608.117 2.453 1.692 2.453 1.692 1.427 2.507 3.745 1.782 4.656 1.363.147-1.061.56-1.783 1.015-2.193-3.553-.416-7.289-1.823-7.289-8.11 0-1.79.625-3.257 1.647-4.401-.164-.417-.714-2.085.157-4.341 0 0 1.346-.443 4.401 1.682 1.277-.366 2.646-.548 4.008-.554 1.359.006 2.727.188 4.004.554 3.055-2.125 4.394-1.682 4.394-1.682.875 2.256.324 3.924.161 4.341 1.028 1.144 1.647 2.611 1.647 4.401 0 6.304-3.743 7.691-7.309 8.097.577.507 1.088 1.507 1.088 3.038 0 2.192-.02 3.961-.02 4.499 0 .439.288.95 1.1.788 6.352-2.172 10.933-8.318 10.933-15.563 0-9.061-7.164-16.406-16.002-16.406z"/></svg>