<svg fill="#8395A7" clip-rule="evenodd" fill-rule="evenodd" stroke-linejoin="round" stroke-miterlimit="1.41421" viewBox="0 0 40 32" xmlns="http://www.w3.org/2000/svg"><path d="m12.383 32c-4.562 0-8.808-1.337-12.383-3.629.632.074 1.275.113 1.927.113 3.785 0 7.268-1.292 10.033-3.458-3.535-.066-6.519-2.401-7.546-5.611.493.094.999.145 1.519.145.737 0 1.45-.099 2.129-.284-3.696-.741-6.481-4.006-6.481-7.921 0-.034 0-.067.001-.101 1.089.605 2.335.968 3.659 1.01-2.167-1.448-3.594-3.921-3.594-6.724 0-1.48.399-2.868 1.094-4.061 3.984 4.887 9.937 8.103 16.651 8.44-.138-.591-.209-1.208-.209-1.841 0-4.461 3.617-8.078 8.078-8.078 2.324 0 4.424.981 5.898 2.551 1.839-.362 3.569-1.034 5.129-1.96-.603 1.886-1.884 3.47-3.552 4.469 1.634-.195 3.191-.629 4.64-1.272-1.083 1.62-2.453 3.043-4.031 4.182.016.346.023.695.023 1.045 0 10.675-8.125 22.985-22.985 22.985z" fill-rule="nonzero"/></svg>