<svg fill="#FFFFFF" clip-rule="evenodd" fill-rule="evenodd" stroke-linejoin="round" stroke-miterlimit="1.41421" viewBox="0 0 32 32" xmlns="http://www.w3.org/2000/svg"><path d="m27.268 27.269h-4.743v-7.427c0-1.771-.032-4.049-2.466-4.049-2.47 0-2.849 1.929-2.849 3.921v7.555h-4.743v-15.272h4.553v2.087h.064c.633-1.201 2.181-2.466 4.491-2.466 4.806 0 5.693 3.163 5.693 7.274zm-20.149-17.359c-1.522 0-2.753-1.234-2.753-2.753 0-1.518 1.231-2.751 2.753-2.751 1.517 0 2.75 1.233 2.75 2.751 0 1.519-1.233 2.753-2.75 2.753zm2.372 17.359h-4.747v-15.272h4.747zm20.141-27.269h-27.271c-1.302 0-2.361 1.033-2.361 2.306v27.385c0 1.275 1.059 2.309 2.361 2.309h27.271c1.305 0 2.369-1.034 2.369-2.309v-27.385c0-1.273-1.064-2.306-2.369-2.306z" fill-rule="nonzero"/></svg>