<?xml version="1.0" encoding="UTF-8" standalone="no"?><!DOCTYPE svg PUBLIC "-//W3C//DTD SVG 1.1//EN" "http://www.w3.org/Graphics/SVG/1.1/DTD/svg11.dtd"><svg width="100%" height="100%" viewBox="0 0 384 768" version="1.1" xmlns="http://www.w3.org/2000/svg" xmlns:xlink="http://www.w3.org/1999/xlink" xml:space="preserve" xmlns:serif="http://www.serif.com/" style="fill-rule:evenodd;clip-rule:evenodd;stroke-linejoin:round;stroke-miterlimit:1.41421;"><g id="PinBase"><path d="M307,583.734c-1.227,92.838 -25.923,134.019 -25.923,134.019c0,0 -40.006,15.181 -89.077,15.181c-49.071,0 -88.851,-15.181 -88.851,-15.181c0,0 -24.922,-41.181 -26.149,-134.019" style="fill:url(#_Radial1);"/></g><g id="BaseRing"><path d="M331.959,559.159c0,13.867 -62.662,25.108 -139.959,25.108c-77.297,0 -139.959,-11.241 -139.959,-25.108l0,25.108c0,13.867 62.662,25.108 139.959,25.108c77.297,0 139.959,-11.241 139.959,-25.108c0,-13.867 0,-38.975 0,-25.108Z" style="fill:#0f57ca;"/><path d="M52.041,559.135c0,-13.867 62.662,-25.108 139.959,-25.108c77.297,0 139.959,11.241 139.959,25.108c0,13.867 -62.662,25.108 -139.959,25.108c-77.297,0 -139.959,-11.241 -139.959,-25.108" style="fill:#1e4686;"/></g><g id="PinBody"><path d="M77.528,556.955c-0.452,8.059 50.942,14.482 114.472,14.482c63.53,0 114.472,-7.392 114.472,-14.482c-5.261,-93.816 -46.264,-161.696 -65.571,-248.934c-11.232,-50.753 -14.468,-115.322 0,-183.432c12.181,-57.339 -9.646,-94.211 -48.901,-94.211c-39.255,0 -61.082,36.872 -48.901,94.211c14.468,68.11 11.232,132.679 0,183.432c-19.307,87.238 -60.31,155.118 -65.571,248.934Z" style="fill:url(#_Radial2);"/></g><g id="NeckRings"><path d="M231.319,226.899c0,3.679 -17.788,6.661 -39.319,6.661c-21.531,0 -39.329,-2.982 -39.329,-6.661l-0.679,16.661c0,3.679 18.477,6.662 40.008,6.662c21.531,0 40.283,-3.378 39.979,-7.044c-0.349,-4.191 -0.66,-16.441 -0.66,-16.279Z" style="fill:#d60c0c;"/><path d="M231.759,194.174c0,3.678 -18.228,6.661 -39.759,6.661c-21.531,0 -39.767,-2.983 -39.767,-6.661l0.578,16.661c0,3.679 17.658,6.661 39.189,6.661c21.531,0 39.213,-2.982 39.213,-6.661c0,-3.679 0.546,-16.812 0.546,-16.661Z" style="fill:#d60c0c;"/></g><defs><radialGradient id="_Radial1" cx="0" cy="0" r="1" gradientUnits="userSpaceOnUse" gradientTransform="matrix(858.65,0,0,858.65,0,0)"><stop offset="0" style="stop-color:#fff;stop-opacity:1"/><stop offset="0.55" style="stop-color:#e4e4e4;stop-opacity:1"/><stop offset="1" style="stop-color:#808080;stop-opacity:1"/></radialGradient><radialGradient id="_Radial2" cx="0" cy="0" r="1" gradientUnits="userSpaceOnUse" gradientTransform="matrix(855.411,0,0,855.411,0,0)"><stop offset="0" style="stop-color:#fff;stop-opacity:1"/><stop offset="0.55" style="stop-color:#e4e4e4;stop-opacity:1"/><stop offset="1" style="stop-color:#808080;stop-opacity:1"/></radialGradient></defs></svg>